<?xml version="1.0" encoding="utf-8"?>
<!-- Generator: Adobe Illustrator 27.5.0, SVG Export Plug-In . SVG Version: 6.00 Build 0)  -->
<svg version="1.1" id="Layer_1" xmlns="http://www.w3.org/2000/svg" xmlns:xlink="http://www.w3.org/1999/xlink" x="0px" y="0px"
	 viewBox="0 0 2581.777 2000" style="enable-background:new 0 0 2581.777 2000;" xml:space="preserve">
<g>
	<g>
		<rect x="0" y="0" style="fill:#FFFFFF;" width="2581.777" height="2000"/>
		<g>
			<g>
				<defs>
					<path id="SVGID_1_" d="M1536.816,249.936c0,0-325.272-106.998-633.775,126.305C594.539,609.544,640.88,939.689,640.88,939.689
						s-346.23,60.004-401.701,371.293c-55.472,311.289,56.663,416.417,56.663,416.417l1932.539,3.966
						c0,0,301.048-857.904-14.423-1262.102S1536.816,249.936,1536.816,249.936z"/>
				</defs>
				
					<linearGradient id="SVGID_00000083796051679407574020000017921577725228743304_" gradientUnits="userSpaceOnUse" x1="95.3263" y1="969.5539" x2="2229.5635" y2="969.5539" gradientTransform="matrix(-1 0 0 1 2453.333 0)">
					<stop  offset="0" style="stop-color:#BCE3F1"/>
					<stop  offset="1" style="stop-color:#D0F7FF"/>
				</linearGradient>
				
					<use xlink:href="#SVGID_1_"  style="overflow:visible;fill:url(#SVGID_00000083796051679407574020000017921577725228743304_);"/>
				<clipPath id="SVGID_00000093863284648567283860000013301533515464868768_">
					<use xlink:href="#SVGID_1_"  style="overflow:visible;"/>
				</clipPath>
				<path style="opacity:0.38;clip-path:url(#SVGID_00000093863284648567283860000013301533515464868768_);fill:#FFFFFF;" d="
					M471.49,670.94c55.5-7.39,111.898-1.195,167.675-5.835c55.764-4.638,110.66-20.218,160.919-45.668
					c13.914-7.046,27.662-14.913,42.737-18.591c20.25-4.94,41.385-1.994,62.172-1.115c40.511,1.713,81.326-4.646,119.56-18.625
					c12.911-4.721,27.318-12.528,29.446-26.539c2.715-17.885-16.099-30.674-32.543-36.809c-16.447-6.135-36.187-13.703-39.737-31.43
					c-1.597-7.966,0.548-16.966-3.615-23.866c-2.844-4.713-8.004-7.273-12.931-9.473c-54.604-24.369-113.96-33.89-173.029-36.442
					c-12.944-0.559-26.295-0.076-39.766,0.529c70.728-42.011,145.65-77.306,224.021-104.896
					c37.474,2.062,75.045,2.557,112.676,1.377c78.754-2.47,163.412-10.442,230.657,32.087c8.731,5.522,17.53,12.57,20.406,22.74
					c7.096,25.099-23.859,42.239-48.341,48.644c-3.861,17.397,18.318,27.278,35.288,30.391
					c54.719,10.035,108.608,24.914,160.889,44.421c37.069,13.832,78.224,35.926,85.524,76.03
					c5.134,28.205-9.505,57.378-31.091,75.376c-21.586,17.998-49.067,26.549-76.272,32.011
					c-92.62,18.594-188.391,5.832-282.309,15.112c-12.526,1.238-25.618,3.103-35.816,10.74
					c-16.127,12.08-20.455,34.732-31.732,51.716c-22.395,33.721-67.29,39.884-106.747,42.113
					c-87.863,4.964-175.95,5.707-263.88,2.227c-22.156-0.877-44.731-1.977-66.128,4.042c-22.498,6.328-42.23,20.104-63.076,30.918
					c-49.565,25.713-105.415,34.646-160.213,43.318c-56.224,8.896-112.927,17.857-169.672,16.426
					c44.383-77.285,96.158-149.474,154.256-215.596C450.993,674.164,461.207,672.31,471.49,670.94z"/>
				<path style="opacity:0.38;clip-path:url(#SVGID_00000093863284648567283860000013301533515464868768_);fill:#FFFFFF;" d="
					M141.282,1388.186c7.89,3.995,15.686,8.456,24.233,10.542c11.482,2.802,23.467,1.131,35.253,0.633
					c22.971-0.972,46.115,2.634,67.794,10.561c7.321,2.677,15.491,7.104,16.697,15.048c1.539,10.142-9.128,17.394-18.453,20.872
					c-9.326,3.479-20.519,7.77-22.532,17.822c-0.905,4.517,0.311,9.62-2.05,13.532c-1.612,2.673-4.539,4.124-7.333,5.371
					c-30.962,13.818-64.619,19.217-98.114,20.665c-7.339,0.316-14.91,0.043-22.548-0.301c40.105,23.822,82.588,43.836,127.028,59.48
					c21.249-1.17,42.553-1.45,63.891-0.781c44.656,1.401,92.66,5.921,130.791-18.194c4.95-3.131,9.94-7.128,11.57-12.895
					c4.025-14.231-13.528-23.951-27.41-27.582c-2.189-9.865,10.387-15.468,20.01-17.232c31.026-5.69,61.584-14.128,91.229-25.189
					c21.021-7.843,44.356-20.371,48.496-43.111c2.911-15.993-5.39-32.535-17.629-42.74c-12.24-10.205-27.823-15.055-43.25-18.151
					c-52.519-10.544-106.824-3.307-160.079-8.569c-7.104-0.701-14.527-1.759-20.309-6.09c-9.145-6.85-11.599-19.694-17.994-29.325
					c-12.698-19.121-38.156-22.615-60.529-23.879c-49.822-2.815-99.771-3.236-149.629-1.263
					C97.853,1287.905,112.784,1373.755,141.282,1388.186z"/>
				<path style="opacity:0.38;clip-path:url(#SVGID_00000093863284648567283860000013301533515464868768_);fill:#FFFFFF;" d="
					M1040.524,1224.71c159.104-83.912,348.82-54.773,526.802-69.438c45.569-3.755,91.797-10.792,132.845-31.63
					c47.933-24.333,89.713-67.518,142.99-70.953c37.442-2.415,87.055,9.835,103.142-25.267c3.961-8.643,3.743-18.554,4.944-28.039
					c16.33-129.058,252.588-91.54,275.632-90.426c56.445,2.728,112.891,5.456,169.336,8.184
					c55.837,67.808,103.856,142.728,142.644,223.251c-53.073-0.514-106.149-0.87-159.219-1.393
					c-26.179-0.258-52.843-0.447-77.878,7.482c-34.129,10.811-62.696,35.914-96.728,47.045c-26.143,8.551-54.09,8.405-81.505,8.183
					c-99.18-0.809-198.36-1.617-297.54-2.426c-18.73-0.152-37.991-0.209-55.435,6.857c-17.125,6.937-31.05,20.15-46.521,30.444
					c-51.063,33.976-115.428,34.534-175.027,46.397c-18.916,3.766-39.748,10.417-48.806,28.024
					c-15.089,29.33,13.467,62.895,42.272,77.535c115.617,58.761,257.978,1.757,381.015,41.167
					c32.902,10.538,63.419,27.719,95.484,40.732c105.163,42.68,222.194,38.934,334.522,26.693
					c95.075-10.36,83.868-26.361,179.075-23.718c1.309,9.444,2.501,18.929,3.577,28.449v179.631
					c-51.067,1.19,4.545,2.38-46.522,3.571c-100.33,2.338-200.874,4.672-300.9-3.735c-56.041-4.709-112.534-12.983-164.509-35.194
					c-31.342-13.394-60.715-31.724-92.948-42.611c-56.678-19.145-117.871-14.037-177.412-17.132
					c-91.954-4.777-181.722-29.481-270.682-54.051c-137.065-37.853-474.768-94.527-483.432-237.988
					c-0.994-16.473,2.503-33.904,11.877-47.253C1018.767,1236.93,1029.699,1230.421,1040.524,1224.71z"/>
			</g>
			<path style="fill:#436780;" d="M134.635,1752.57h2312.507c11.712,0,21.205-9.494,21.205-21.205l0,0
				c0-11.712-9.493-21.206-21.205-21.206H134.635c-11.711,0-21.205,9.494-21.205,21.206l0,0
				C113.429,1743.076,122.924,1752.57,134.635,1752.57z"/>
		</g>
	</g>
	<g>
		<g>
			<path style="fill:#000444;" d="M378.244,802.01c88.785,36.488,117.363-43.236,115.138-41.128
				c1.69-1.808,15.053-7.636,23.594-11.816c35.578-17.419,57.09-57.93,56.28-98.688c51.052-31.041,64.352-96.77,29.339-133.099
				c10.771-40.394-17.649-84.737-53.776-105.212c-27.352-47.625-98.328-34.532-135.523,2.825
				c-18.855,18.939-27.798,53.978-27.503,81.639c-43.768,18.093-66.665,66.286-56.712,114.893
				C270.031,659.977,287.647,764.777,378.244,802.01z"/>
			<g>
				<path style="fill:#F48C7F;" d="M1009.871,742.736c0,0-8.551,1.323-11.42,1.546c-3.367,0.257-13.499,0.253-13.499,0.253
					s-35.259-1.669-34.875-4.273c0.38-2.604,6.655-5.7,8.884-6.362c2.225-0.661,4.771-1.649,6.999-2.311
					c2.223-0.662,3.604-2.857,3.029-5.673c-0.574-2.816-9.987-2.096-13.201-1.2c-10.026,2.795-35.413,15.64-38.156,16.886
					c-3.243,1.471-63.653-12.712-84.769-15.917c-0.001-0.003,0-0.006,0.002-0.009c-34.389-6.28-69.387-14.467-73.026-15.15
					l-132.448-68.437l-44.868,39.33c0,0,145.886,78.038,153.643,81.099c3.689,1.456,84.633,9.806,84.641,9.774
					c40.159,1.59,75.558,2.891,82.347,3.337c0,0,19.844,6.798,32.21,11.878c12.365,5.083,25.88,4.745,29.585,5.634
					c0.544,0.132,13.114,3.889,29.273,2.492c13.925-1.206,0.218-6.492,0.218-6.492s-26.163-2.443-25.602-4.491
					c0.433-1.58,14.638,0.604,30.058-0.566c3.966-0.3,7.878-0.611,11.47-0.927c9.427-0.826,11.661-6.898,1.67-7.617
					c-3.528-0.254-9.4-0.532-13.619-0.133c-4.557,0.432-8.869-0.655-12.752-0.882c-7.706-0.453-13.329-0.683-13.135-0.993
					c0.252-0.404-1.206-1.583,2.995-2.033c5.047-0.544,16.012,0.696,23.381-0.682c4.177-0.78,13.002-1.876,13.002-1.876
					s14.129-3.354,14.148-4.204c0.111-4.604-10.656-5.107-16.2-3.297c-4.102-0.674-13.357,0.747-13.357,0.747
					s-19.322-1.361-19.15-4.127c0.139-2.271,47.112-8.022,46.898-12.642C1024.068,741.648,1009.871,742.736,1009.871,742.736z"/>
				<path style="fill:#F47458;" d="M934.076,761.129c0,0,17.461-8.635,16.007-20.533c0,0,3.398,6.372-0.721,12.585
					C945.245,759.396,934.076,761.129,934.076,761.129z"/>
				<path style="fill:#D12626;" d="M662.341,735.009c0,0,13.534-19.38,21.559-36.47c4.819-10.266,11.425-28.721,11.425-28.721
					s-67.462-52.466-121.721-70.63c-22.425-7.507-55.717-1.33-44.037,41.566C541.246,683.651,662.341,735.009,662.341,735.009z"/>
			</g>
			<path style="fill:#F7A491;" d="M512.034,1102.569l33.643,304.234c0,0-0.875-26.292,1.107-8.014
				c1.983,18.277,36.568,258.047,36.568,258.047l-1.561,13.17l-0.844,39.013l129.28,0.985c0,0-27.247-12.349-65.36-36.757
				c-2.818-1.806-9.315-7.562-10.894-19.035c-10.178-73.903,9.958-320.411,9.958-320.411l0.294-230.247L512.034,1102.569z"/>
			<path style="fill:#F7A491;" d="M410.149,1158.588c-7.246,1.854-2.84,172.332-8.844,183.905
				c-38.065,73.37-47.112,296.428-47.112,296.428l-15.704,31.234l3.605,30.097c0,0,28.407,16.48,48.339,5.365l-3.084-30.139
				l-2.353-40.265l96.036-277.898l36.979-192.83L410.149,1158.588z"/>
			<path style="fill:#FF3B3B;" d="M580.329,1719.049h133.456c4.935-0.453,6.14-4.533,4.428-7.048
				c-3.523-5.182-19.094-8.98-36.593-17.233c-30.696,3.273-94.986-17.578-99.832-24.786
				C578.993,1684.413,577.587,1718.434,580.329,1719.049z"/>
			<path style="fill:#FF3B3B;" d="M338.57,1670.075c0,0,11.854,34.067,24.67,33.084c12.815-0.981,24.029-27.845,24.029-27.845
				s4.807,22.605,2.563,35.052c-2.243,12.449-20.505,25.227-32.999,19.656C344.337,1724.455,327.356,1695.625,338.57,1670.075z"/>
			<path style="fill:#FF3B3B;" d="M364.864,1122.281c33.841-182.075,45.361-259.845,78.208-327.562
				c-10.966-34.437-16.168-60.367-17.768-68.127c-0.811-3.934-34.916,53.51-34.916,53.51s-15.111-5.732-22.993-9.317
				c-18.148-8.26-40.909-21.351-40.909-21.351c30.384-58.273,49.936-111.611,90.352-151.227c8.142-3.53,64.247-7.958,69.898-8.6
				l-0.022,0.023c9.64-0.589,21.169-2.256,23.691-1.991c6.113,0.604,56.657,6.033,60.539,10.596
				c7.191,8.489,7.298,23.208,15.447,44.407c4.806,12.486,13.227,30.593,16.993,44.362c6.074,22.181-4.074,43.757-7.382,56.998
				c-1.99,8.003-1.483,14.571,1.353,21.061c19.254,18.454,59.938,39.047,72.884,105.034c11.694,59.602-2.061,103.052-7.086,150.333
				l55.793,447.026c-66.5,42.323-230.552,57.563-431.069,6.271C342.32,1278.018,347.859,1213.774,364.864,1122.281z"/>
			<path style="fill:#F7A491;" d="M479.897,533.202c0,0,7.776,42.817,6.22,59.705c-1.557,16.891,5.928,71.323,39.507,71.501
				c33.578,0.179,10.758-56.514,7.596-73.064c-3.163-16.551-8.294-80.473-8.294-80.473L479.897,533.202z"/>
			<path style="fill:#F47458;" d="M526.321,527.471c0.752,8.668,1.741,19.648,2.794,30.234c-9.344,12.4-24.466,21.045-43.277,19.229
				c-0.708-9.124-2.079-19.423-3.327-27.736L526.321,527.471z"/>
			<path style="fill:#F7A491;" d="M477.386,408.602c0,0-20.969,7.48-32.38,30.32c-11.412,22.84-15.173,86.778,30.823,111.338
				c45.996,24.561,76.341-20.737,73.487-61.331C546.459,448.338,533.71,395.156,477.386,408.602z"/>
			<path style="fill:#F7A491;" d="M562.986,477.622c1.21,10.523-2.505,19.499-8.299,20.05c-5.793,0.551-11.473-7.533-12.685-18.056
				c-1.21-10.522,2.503-19.498,8.297-20.05C556.094,459.016,561.773,467.1,562.986,477.622z"/>
			<path style="fill:#F7A491;" d="M449.061,495.335c4.042,10.187,2.03,20.88-4.497,23.885c-6.528,3.004-15.097-2.818-19.139-13.005
				c-4.044-10.187-2.032-20.88,4.497-23.884C436.448,479.326,445.017,485.149,449.061,495.335z"/>
			<path style="fill:#F8A492;" d="M519.378,957.998c2,0.416,15.764,1.208,15.764,1.208s20.186-11.958,23.069-6.298
				c0.884,1.696-20.915,13.844-20.915,13.844s-21.07,0.678-26.106,0.528c-9.381-0.227-29.105-2.831-58.44-24.18
				c-25.375-12.675-152.907-85.441-154.79-99.285c-1.114-8.185,18.302-50.887,37.104-89.552c8.303,4.527,21.184,11.43,32.333,16.523
				c5.268,2.377,13.763,5.733,18.8,7.696c-12.186,23.011-23.721,46.699-22.221,51.603c1.306,4.302,110.229,85.591,110.229,85.591
				l21.762-2.905c0,0,38.37,4.451,39.256,8.941c0.921,4.451-16.187,3.281-18.456,3.961c-1.269,0.377-3.806,1.244-5.959,2.64
				c6.305,2.942,16.3,7.658,21.915,7.885c12.879,0.453,27.796-1.396,29.412,0.414c1.884,2.112-17.685,7.921-31.489,8.751
				c-5.652,0.302-9.071-1.396-11.535-0.943c-3.344,0.68,2.539,3.321,11.957,2.753c5.384-0.337,14.764-3.243,20.685-4.072
				c9.728-1.357,15.188-0.604,15.994,0.225c1.346,1.359-27.606,10.449-27.606,10.449s-18.838,2.414-23.144,2.188
				C516.995,955.961,514.382,957.018,519.378,957.998z"/>
		</g>
		<g>
			<g>
				<g>
					<path style="fill:#F99662;" d="M1287.899,549.163l-4.597,50.3c0,0,26.116,6.876,63.548,27.31
						c2.389-21.369,9.509-30.031,15.415-50.838C1361.472,575.807,1287.899,549.163,1287.899,549.163z"/>
					<path style="fill:#FFFFFF;" d="M1797.007,648.333l-47.209-43.374c0,0-67.119,43.349-192.744,24.96
						c-116.51-17.054-190.026-55.594-200.144-57.231c-5.904,20.807-10.356,42.274-12.745,63.644
						c70.602,38.543,206.69,106.958,314.139,90.699C1822.718,702.152,1797.007,648.333,1797.007,648.333z"/>
					<path style="fill:#E1D6FC;" d="M1792.832,644.504c-11.426,17.396-44.429,39.72-134.528,53.354
						c-105.422,15.95-238.408-49.604-310.07-88.486c-1.689,8.966-3.063,17.971-4.068,26.959
						c70.602,38.543,206.69,106.958,314.139,90.699c164.414-24.878,138.703-78.697,138.703-78.697L1792.832,644.504z"/>
					<path style="fill:#F99662;" d="M1747.35,1712.524c0,0-3.869-6.594,21.932-11.611c25.8-5.017,53.777-23.071,53.777-23.071
						s23.649-20.066,13.615-78.119l43.718,5.017c0,0,16.608,108.753,9.837,115.525
						C1883.457,1727.036,1760.967,1726.142,1747.35,1712.524z"/>
					<path style="fill:#1B4E61;" d="M1892.576,1724.5c-6.771,6.771-141.903,4.222-155.521-9.396c0,0,6.451-12.896,32.252-17.913
						c22.687-4.412,47.033-16.025,52.58-18.764c1.096,4.291,1.886,9.398,1.886,15.181c0,15.943,44.063-9.555,65.771-12.768
						c0.99-0.146,1.901,0.568,2.015,1.563C1893.994,1703.795,1895.165,1721.91,1892.576,1724.5z"/>
					<path style="fill:#001E6E;" d="M1913.738,1092.386c0,0,47.301,418.545-22.934,554.714l-60.202-10.033
						c0,0-18.635-587.758-57.335-640.716c-38.701-52.958-28.667-137.604-28.667-137.604l131.965,62.352L1913.738,1092.386z"/>
					<g>
						<path style="fill:#001653;" d="M1921.724,1181.847c-3.96-53.838-7.985-89.461-7.985-89.461l-37.173-171.288l-14.34-6.774
							l-95.037,33.803c2.861,7.258,10.851,28.505,31.164,83.873C1817.413,1083.957,1865.268,1137.811,1921.724,1181.847z"/>
					</g>
					<path style="fill:#F99662;" d="M2231.946,822.196c0,0-6.45,7.883-32.251,12.9c-25.801,5.017-53.751,19.351-53.751,19.351
						s-23.65,20.067-13.616,78.119l-43.72-5.017c0,0-18.954-112.987-12.182-119.76
						C2083.198,801.017,2218.329,808.578,2231.946,822.196z"/>
					<path style="fill:#1B4E61;" d="M2076.427,807.789c6.771-6.772,141.902,0.789,155.52,14.407c0,0-6.45,7.883-32.251,12.9
						c-22.688,4.411-47.035,16.025-52.582,18.765c-1.094-4.292-1.886-9.397-1.886-15.181c0-16.399-46.623,11.051-67.58,12.988
						C2075.074,829.508,2073.766,810.45,2076.427,807.789z"/>
					<g>
						<path style="fill:#001E6E;" d="M2142.36,912.498l-69.519-6.45c0,0,37.697,168.624,5.734,203.538
							c-34.636,37.833-154.804-217.155-154.804-217.155l-156.584,48.619c2.857,6.33,10.844,24.87,31.164,73.216
							c41.566,98.903,220.021,205.688,326.092,214.289C2230.513,1237.157,2142.36,912.498,2142.36,912.498z"/>
					</g>
					<path style="fill:#F99662;" d="M1802.11,502.587l9.857,108.186l-87.435,22.933c0,0,15.769-70.951,10.034-84.568
						C1728.834,535.521,1802.11,502.587,1802.11,502.587z"/>
					<path style="fill:#F47458;" d="M1734.566,549.139c-5.732-13.618,67.544-46.551,67.544-46.551l3.034,33.305
						c-10.44,13.275-36.771,31.338-69.574,30.069C1736.063,558.378,1735.879,552.255,1734.566,549.139z"/>
					<path style="fill:#F0EBFC;" d="M1811.968,569.206c0,0,11.311,4.449,17.713,13.016c0.455,0.609-7.724,2.563-7.229,3.199
						c7.436,9.586,19.26,22.128,36.819,33.953c35.117,23.65,42.284,192.071,55.184,230.056
						c12.901,37.984,36.551,72.385,36.551,72.385s-11.466,72.385-174.87,108.22c0,0-93.886-165.554-80.986-270.19
						c12.901-104.636,36.885-165.385,36.885-165.385L1811.968,569.206z"/>
					<path style="opacity:0.36;fill:#1B4E61;" d="M1740.563,957.473c45.357-29.941,112.419-100.592,148.719-262.299
						l-175.803,191.122C1721.592,911.704,1731.27,936.16,1740.563,957.473z"/>
					<path style="fill:#B4B0BD;" d="M1786.02,600.202c-0.483-0.749-1.484-0.963-2.243-0.482l-44.246,28.717l-5.609-27.677
						c-0.183-0.875-1.065-1.433-1.913-1.268c-0.877,0.178-1.446,1.033-1.269,1.915l6.561,32.355l48.237-31.316
						C1786.292,601.957,1786.508,600.951,1786.02,600.202z"/>
					<g>
						<path style="fill:#D12626;" d="M1314.194,465.617c0,0,89.484-70.847,109.603-75.664c20.119-4.817,39.988,69.771,34.321,89.629
							c-5.667,19.858-146.759-4.898-146.759-4.898L1314.194,465.617z"/>
						<path style="opacity:0.51;fill:#A15337;" d="M1313.394,468.178l-1.407,4.504c32.451-0.607,112.521-2.646,146.856-8.384
							c-0.831-10.784-3.629-24.432-7.667-37.096L1313.394,468.178z"/>
						<path style="fill:#D12626;" d="M1190.635,429.725c-17.274,7.375-14.289,50.27-14.289,60.413
							c0,8.642,102.444-4.425,135.015-7.101c5.658-0.465-2.525-10.13-2.525-10.13S1211.525,420.805,1190.635,429.725z"/>
						<path style="opacity:0.51;fill:#A15337;" d="M1204.521,429.433c19.898,15.024,67.718,48.685,103.172,53.92
							c1.303-0.118,2.527-0.224,3.667-0.317c5.658-0.465-2.525-10.13-2.525-10.13S1238.411,435.2,1204.521,429.433z"/>
						<path style="fill:#8F4B99;" d="M1561.582,552.712H1159.67v-62.575h386.609c8.451,0,15.303,6.851,15.303,15.302V552.712z"/>
						<path style="fill:#8F4B99;" d="M1540.689,552.712h-370.076v261.355c0,8.716,7.065,15.782,15.782,15.782h338.513
							c8.716,0,15.781-7.065,15.781-15.782V552.712z"/>
						<path style="fill:#B57DBD;" d="M1445.187,552.712h-301.433v262.894c0,7.866,6.377,14.243,14.243,14.243h272.947
							c7.866,0,14.243-6.377,14.243-14.243V552.712z"/>
						<g>
							<path style="fill:#FFFFFF;" d="M1155.656,747.464c0-29.572,29.846-29.863,29.846-62.558
								c0-32.796-29.846-32.883-29.846-62.558c0-29.57,29.846-29.859,29.846-62.551c0-2.55-0.182-4.902-0.514-7.086h-6.09
								c0.41,2.167,0.635,4.515,0.635,7.086c0,29.569-29.846,29.859-29.846,62.551c0,32.795,29.846,32.883,29.846,62.558
								c0,29.572-29.846,29.863-29.846,62.558c0,32.795,29.846,32.883,29.846,62.558c0,8.566-2.504,14.675-6.063,19.827h7.124
								c2.933-5.195,4.907-11.471,4.907-19.827C1185.502,777.226,1155.656,777.139,1155.656,747.464z"/>
							<path style="fill:#FFFFFF;" d="M1212.772,776.682c-7.25-7.598-14.099-14.773-14.099-29.218
								c0-29.572,29.846-29.863,29.846-62.558c0-32.796-29.846-32.883-29.846-62.558c0-29.57,29.846-29.859,29.846-62.551
								c0-2.55-0.181-4.902-0.514-7.086h-6.089c0.409,2.167,0.634,4.515,0.634,7.086c0,29.569-29.845,29.859-29.845,62.551
								c0,32.795,29.845,32.883,29.845,62.558c0,29.572-29.845,29.863-29.845,62.558c0,32.795,29.845,32.883,29.845,62.558
								c0,8.675-2.471,14.729-6.015,19.827h7.076c2.934-5.195,4.907-11.471,4.907-19.827
								C1228.52,793.187,1220.513,784.796,1212.772,776.682z"/>
							<path style="fill:#FFFFFF;" d="M1241.692,747.464c0-29.572,29.845-29.863,29.845-62.558
								c0-32.796-29.845-32.883-29.845-62.558c0-29.57,29.845-29.859,29.845-62.551c0-2.55-0.181-4.902-0.514-7.086h-6.089
								c0.409,2.167,0.634,4.515,0.634,7.086c0,29.569-29.846,29.859-29.846,62.551c0,16.834,8.007,25.225,15.748,33.339
								c7.25,7.599,14.098,14.774,14.098,29.219c0,29.572-29.846,29.863-29.846,62.558c0,32.795,29.846,32.883,29.846,62.558
								c0,8.675-2.471,14.729-6.015,19.827h7.076c2.934-5.195,4.907-11.471,4.907-19.827
								C1271.537,777.226,1241.692,777.139,1241.692,747.464z"/>
							<path style="fill:#FFFFFF;" d="M1284.71,747.464c0-14.444,6.848-21.62,14.097-29.218
								c7.741-8.114,15.748-16.505,15.748-33.339c0-32.796-29.845-32.883-29.845-62.558c0-29.57,29.845-29.859,29.845-62.551
								c0-2.55-0.181-4.902-0.514-7.086h-6.089c0.409,2.167,0.634,4.515,0.634,7.086c0,29.569-29.846,29.859-29.846,62.551
								c0,16.834,8.007,25.225,15.748,33.339c7.25,7.599,14.098,14.774,14.098,29.219c0,29.572-29.846,29.863-29.846,62.558
								c0,32.795,29.846,32.883,29.846,62.558c0,8.675-2.471,14.729-6.015,19.827h7.076c2.934-5.195,4.907-11.471,4.907-19.827
								C1314.555,777.226,1284.71,777.139,1284.71,747.464z"/>
							<path style="fill:#FFFFFF;" d="M1341.825,776.682c-7.25-7.598-14.098-14.773-14.098-29.218
								c0-29.572,29.845-29.863,29.845-62.558c0-32.796-29.845-32.883-29.845-62.558c0-29.57,29.845-29.859,29.845-62.551
								c0-2.55-0.181-4.902-0.514-7.086h-6.089c0.409,2.167,0.634,4.515,0.634,7.086c0,29.569-29.846,29.859-29.846,62.551
								c0,32.795,29.846,32.883,29.846,62.558c0,14.444-6.848,21.62-14.098,29.218c-7.741,8.114-15.748,16.505-15.748,33.34
								c0,32.795,29.846,32.883,29.846,62.558c0,8.675-2.471,14.729-6.015,19.827h7.076c2.934-5.195,4.907-11.471,4.907-19.827
								C1357.572,793.187,1349.566,784.796,1341.825,776.682z"/>
							<path style="fill:#FFFFFF;" d="M1370.745,747.464c0-14.444,6.848-21.62,14.098-29.218
								c7.741-8.114,15.747-16.505,15.747-33.339c0-32.796-29.845-32.883-29.845-62.558c0-29.57,29.845-29.859,29.845-62.551
								c0-2.55-0.181-4.902-0.513-7.086h-6.09c0.409,2.167,0.634,4.515,0.634,7.086c0,29.569-29.845,29.859-29.845,62.551
								c0,32.795,29.845,32.883,29.845,62.558c0,14.444-6.848,21.62-14.098,29.218c-7.741,8.114-15.747,16.505-15.747,33.34
								c0,32.795,29.845,32.883,29.845,62.558c0,8.566-2.504,14.675-6.062,19.827h7.123c2.934-5.195,4.907-11.471,4.907-19.827
								C1400.59,777.226,1370.745,777.139,1370.745,747.464z"/>
							<path style="fill:#FFFFFF;" d="M1413.763,747.464c0-29.572,29.845-29.863,29.845-62.558c0-16.835-8.006-25.226-15.747-33.34
								c-7.249-7.598-14.098-14.773-14.098-29.218c0-29.57,29.845-29.859,29.845-62.551c0-2.55-0.181-4.902-0.513-7.086h-6.09
								c0.41,2.167,0.634,4.515,0.634,7.086c0,29.569-29.845,29.859-29.845,62.551c0,32.795,29.845,32.883,29.845,62.558
								c0,14.444-6.848,21.62-14.098,29.218c-7.741,8.114-15.747,16.505-15.747,33.34c0,16.834,8.006,25.225,15.747,33.339
								c7.25,7.598,14.098,14.774,14.098,29.219c0,8.558-2.499,14.664-6.051,19.812c3.453-0.154,6.585-1.537,8.972-3.722
								c1.877-4.413,3.048-9.615,3.048-16.09C1443.607,777.226,1413.763,777.139,1413.763,747.464z"/>
						</g>
						<rect x="1143.753" y="552.464" style="opacity:0.51;fill:#AB6248;" width="301.434" height="16.835"/>
						
							<rect x="1445.187" y="552.464" transform="matrix(-1 -1.224647e-16 1.224647e-16 -1 2985.876 1121.7643)" style="opacity:0.51;fill:#AB6248;" width="95.503" height="16.835"/>
						<path style="fill:#FF3B3B;" d="M1437.228,329.8c20.104-3.958,74.896,97.242,57.601,117.654
							c-6.406,7.56-183.282,27.23-183.282,27.23l3.446-9.068C1314.992,465.617,1412.758,334.617,1437.228,329.8z"/>
						<rect x="1291.587" y="552.712" style="fill:#FF3B3B;" width="51.234" height="277.137"/>
						<path style="fill:#B57DBD;" d="M1458.119,552.712H1130.82v-46.733c0-8.749,7.093-15.842,15.841-15.842h295.616
							c8.749,0,15.842,7.093,15.842,15.842V552.712z"/>
						<path style="fill:#AC59EB;" d="M1442.278,490.137h-295.616c-8.749,0-15.842,7.093-15.842,15.842v17.875
							c0-8.749,7.093-15.842,15.842-15.842h295.616c8.749,0,15.841,7.093,15.841,15.842v-17.875
							C1458.119,497.23,1451.027,490.137,1442.278,490.137z"/>
						<rect x="1290.709" y="490.137" style="fill:#D12626;" width="51.233" height="62.575"/>
						<path style="fill:#FF3B3B;" d="M1306.336,484.246c0,0-31.17-3.967-49.306,23.236c-18.135,27.203-43.638,49.305-74.241,40.804
							c0,0,3.967,50.44,18.136,56.673c0,0,51.006-5.302,75.375-60.457c24.369-55.155,40.237-56.289,40.237-56.289L1306.336,484.246z
							"/>
						<path style="fill:#FF3B3B;" d="M1313.18,474.426c0,0,19.89-8.28,41.975,13.804c22.085,22.084,63.438,55.539,87.24,52.139
							c0,0,0.566,47.605-19.269,54.972c0,0-50.439-2.833-74.242-46.472C1325.081,505.232,1323.381,474.224,1313.18,474.426z"/>
						<path style="fill:#FF3B3B;" d="M1315.698,458.943c0,0-18.902-81.457-47.119-119.69
							c-28.217-38.233-43.268-31.774-53.936-27.168c-10.667,4.606-50.395,54.089-37.997,79.873
							c12.397,25.784,134.639,76.505,134.639,76.505L1315.698,458.943z"/>
						<path style="opacity:0.33;fill:#B9004E;" d="M1199.943,377.464c-3.98-5.462-12.333-12.946-20.424-18.859
							c-5.105,12.059-7.275,24.2-2.873,33.353c12.397,25.784,134.639,76.505,134.639,76.505s-18.74-12.09-55.644-35.859
							C1229.679,415.879,1213.677,396.311,1199.943,377.464z"/>
						<rect x="1291.587" y="552.712" style="opacity:0.51;fill:#A15337;" width="51.234" height="13.823"/>
						<path style="fill:#D12626;" d="M1313.391,491.475h5.869c5.816,0,10.531-4.715,10.531-10.531V463.68
							c0-5.816-4.714-10.531-10.53-10.531h-5.87c-5.817,0-10.531,4.715-10.531,10.531v17.264
							C1302.859,486.76,1307.574,491.475,1313.391,491.475z"/>
						<path style="opacity:0.51;fill:#A15337;" d="M1324.987,454.841c1.07,1.649,1.692,3.615,1.692,5.728v17.264
							c0,5.816-4.715,10.531-10.531,10.531h-5.87c-2.111,0-4.078-0.622-5.727-1.692c1.877,2.892,5.135,4.804,8.839,4.804h5.87
							c5.816,0,10.53-4.715,10.53-10.531V463.68C1329.791,459.976,1327.879,456.718,1324.987,454.841z"/>
					</g>
					<path style="fill:#F99662;" d="M1512.274,830.801c0-6.289-3.985-36.333-19.969-40.545c-8.356-2.202,10.574,20.74,3.239,22.836
						c-3.732,1.067-14.015-5.676-24.325-12.907c-21.223-16.047-30.463-46.737-37.483-42.905
						c-7.163,3.91,14.436,41.445,14.376,41.626c-3.895-5.906-11.685-20.229-14.376-18.76c-5.577,3.043,3.34,19.571,7.658,26.891
						c0.003,0.204,6.163,10.346,6.166,10.549c-3.64-5.428-12.66-18.581-15.229-17.18c-7.207,3.933,16.426,34.326,17.785,35.685
						c4.461,4.459,57.441,35.917,115.979,56.593c0.916-15.063,1.172-30.518,1.227-46.097
						C1533.694,842.888,1512.274,833.742,1512.274,830.801z"/>
					<path style="fill:#FFFFFF;" d="M1869.888,624.702c-26.811-18.816-64.445,2.368-77.625,32.351
						c-25.604,58.236-79.865,173.065-114.892,185.909c-25.1,9.203-71.784,7.838-110.048,3.626
						c-9.939,17.341-9.024,39.746-9.939,54.809c44.633,15.765,121.152,25.595,148.581,19.701
						c63.403-13.624,173.67-194.464,186.771-234.812C1899.285,666.112,1887.959,637.385,1869.888,624.702z"/>
				</g>
			</g>
			<g>
				<path style="fill:#F99662;" d="M1815.339,400.675c1.881-0.621,8.625,94.751-17.246,120.308
					c-16.016,15.822-74.829,28.944-89.844,14.113c-18.313-18.088-11.874-127.84,27.491-154.081
					C1775.105,354.774,1815.339,400.675,1815.339,400.675z"/>
				<path style="fill:#000444;" d="M1751.864,329.811c29.733,6.625,48.509,25.521,55.398,33.439
					c13.504,1.964,31.719,9.912,49.873,41.72c22.323,39.11,1.403,78.217-23.926,101.401c-25.45,23.295-12.647,35.167-20.355,40.732
					c-5.656,4.084-11.694-9.025-11.694-9.025c-2.913-9.552-3.933-19.622-2.595-29.518c0.801-5.938,2.166-16.345,4.795-21.57
					c6.934-13.782-0.727-16.629-12.67-21.711c-10.831-4.608,8.456-62.553-62.555-77.505
					C1709.182,383.783,1702.312,318.771,1751.864,329.811z"/>
				<path style="fill:#F99662;" d="M1789.097,474.342c-0.524,11.767-0.05,22.572,6.79,22.878
					c6.837,0.305,17.452-10.006,17.974-21.772c0.522-11.765-4.597-21.55-11.436-21.857
					C1795.585,453.287,1789.617,462.577,1789.097,474.342z"/>
			</g>
		</g>
	</g>
</g>
</svg>
