<?xml version="1.0" encoding="utf-8"?>
<!-- Generator: Adobe Illustrator 27.5.0, SVG Export Plug-In . SVG Version: 6.00 Build 0)  -->
<svg version="1.1" id="_1" xmlns="http://www.w3.org/2000/svg" xmlns:xlink="http://www.w3.org/1999/xlink" x="0px" y="0px"
	 viewBox="0 0 450 450" style="enable-background:new 0 0 450 450;" xml:space="preserve">
<g>
	<g>
		<path style="fill:#F79D79;" d="M251.581,171.908c0,0-3.67,0.627-4.429,0.501c-0.759-0.126-5.884-1.455-9.996-0.822
			c-4.112,0.633,3.986,13.476,3.986,13.476L251.581,171.908z"/>
		<g>
			<polygon style="fill:#FDC61C;" points="238.518,168.106 237.725,183.433 217.819,184.273 215.181,168.564 			"/>
			<polygon style="fill:#FDC61C;" points="238.518,168.106 241.443,168.106 240.963,180.195 237.725,183.433 			"/>
			<polygon style="fill:#FDC61C;" points="238.518,168.106 241.443,168.106 240.963,180.195 237.725,183.433 			"/>
			<polygon style="opacity:0.42;fill:#FDC61C;" points="238.41,170.209 238.34,171.908 215.781,172.133 215.533,170.663 			"/>
			<polygon style="fill:#FDC61C;" points="238.41,170.209 238.34,171.908 241.341,170.663 241.379,169.719 			"/>
			<polygon style="fill:#FDC61C;" points="239.584,165.948 239.584,170.186 214.429,170.663 214.429,166.281 			"/>
			<polygon style="fill:#FDC61C;" points="239.584,165.948 239.584,170.186 242.145,169.519 242.145,166.292 			"/>
			<polygon style="fill:#FDC61C;" points="239.584,165.948 239.584,170.186 242.145,169.519 242.145,166.292 			"/>
			<polygon style="fill:#465683;" points="230.005,183.758 223.699,184.024 223.315,166.164 230.636,166.066 			"/>
			<polygon style="fill:#465683;" points="241.141,166.157 240.201,166.031 239.259,181.899 240.211,180.948 			"/>
		</g>
		<path style="fill:#F79D79;" d="M248.741,175.407c0,0-4.996,0.6-6.395,0.8c-1.4,0.2-4.697-0.8-6.096-0.8
			c-1.399,0-5.896,3.797-8.694,4.696c-2.798,0.9-6.213-0.962-7.412,0.038c-1.199,0.999-1.344,6.962,2.453,8.359
			c3.797,1.396,9.642,2.124,11.754,1.496c3.574-1.063,8.379-4.122,11.784-4.209c3.405-0.087,4.807-0.087,4.807-0.087
			L248.741,175.407z"/>
		<path style="fill:#F79D79;" d="M312.944,385.197c1.462,0.585,9.212-0.731,9.066-3.217c-0.195-3.217,5.118-9.115,6.093-9.749
			c1.024-0.634,3.364-4.289,0-6.678c-0.39-0.293-0.78-0.634-1.072-1.024c-1.999-1.95-3.558-4.874-3.558-4.874
			s-9.7-0.195-7.068,4.094c2.633,4.338,0.488,11.747-3.461,15.696C308.996,383.393,311.433,384.661,312.944,385.197z"/>
		<path style="fill:#FC5954;" d="M312.944,385.197c1.462,0.585,9.212-0.731,9.066-3.217c-0.195-3.217,5.118-9.115,6.093-9.749
			c1.024-0.634,3.364-4.289,0-6.678c-0.39-0.293-0.78-0.634-1.072-1.024c0.243,0.829,0.779,3.509-1.803,6.434
			c-3.022,3.51-4.906,10.031-6.727,10.236c-4.749,0.537-5.557-1.754-5.557-1.754C308.996,383.393,311.433,384.661,312.944,385.197z"
			/>
		<path style="fill:#F79D79;" d="M279.165,303.405c0.098,0.243,3.022,5.118,7.214,11.991c0,0,0.049,0.243,0.341,0.585
			c8.384,13.794,29.693,47.79,29.693,47.79c1.56,2.779,4.866,1.051,6.718-1.045c0.829-0.829,1.219-1.852,0.829-2.924l-0.146-0.634
			l-16.768-65.073c-1.413-4.289-4.679-7.458-8.578-8.969c-3.071-1.267-6.629-1.462-10.042-0.342
			c-0.731,0.244-1.413,0.536-2.096,0.878C280.042,288.977,276.825,296.435,279.165,303.405z"/>
		<path style="opacity:0.46;fill:#F79D79;" d="M279.165,303.405c0.098,0.243,3.022,5.118,7.214,11.991c0,0,0.049,0.243,0.341,0.585
			c0.487,0.585,1.657,1.413,4.241,1.657c7.994,0.634,13.951,6.178,16.524,13.746c2.604,7.658,12.844,27.358,13.232,42.113
			c-0.355,4.4-5.882,10.555-9.913,9.66c2.664,6.595,14.63-3.614,15.254-4.319c0.488-0.975-2.194-18.256-2.243-19.67l-16.768-65.073
			c-1.413-4.289-4.679-7.458-8.578-8.969l-12.137,0.536C280.042,288.977,276.825,296.435,279.165,303.405z"/>
		<path style="fill:#373362;" d="M312.235,93.913c-12.397,18.356-19.237,51.099,22.182,29.436
			c14.162,9.846,23.516-17.23,9.239-39.138c11.077-16.246-9.239-27.332-20.677-24.123C294.526,65.679,306.74,80.835,312.235,93.913z
			"/>
		<path style="fill:#FC5954;" d="M251.283,170.759c0,0,35.788-7.044,36.181-7.639c0.969-1.233,2.035-2.76,3.076-4.354
			c2.097-3.207,4.156-6.772,6.139-10.403c1.987-3.638,3.911-7.384,5.778-11.17c1.849-3.755,15.399-22.785,26.568-17.974
			c11.923,5.136-7.548,39.454-10.26,43.197c-2.719,3.747-5.529,7.462-8.736,11.216c-1.615,1.881-3.301,3.762-5.326,5.721
			c-2.209,1.938-3.992,4.071-9.279,6.476l-0.52,0.238c-0.746,0.335-1.568,0.534-2.436,0.563l-40.748-0.708
			C248.151,186.047,247.303,171.491,251.283,170.759z"/>
		<path style="fill:#F79D79;" d="M298.175,289.367c0,0.146,0.975,3.753,2.438,9.505c0.925,3.412,1.998,7.556,3.168,12.137h0.049
			c6.776,25.834,17.921,57.095,17.921,57.095c1.073,4.339,10.763,9.549,10.373,5.65l-2.264-46.319c-0.048-0.049-0.048-0.049,0-0.098
			l-1.755-28.954l-0.731-11.796c-0.78-8.043-7.945-13.989-15.988-13.21C303.342,274.159,297.395,281.324,298.175,289.367z"/>
		<path style="opacity:0.18;fill:#F79D79;" d="M303.78,311.009h0.049c0,0,1.901,2.681,14.721,2.681
			c7.556,0,10.285,7.507,11.309,13.648l-1.755-28.954l-27.491,0.487L303.78,311.009z"/>
		<path style="fill:#FC5954;" d="M251.283,170.759c0,0,35.788-7.044,36.181-7.639c0.969-1.233,2.035-2.76,3.076-4.354
			c2.097-3.207,4.156-6.772,6.139-10.403c1.987-3.638,3.911-7.384,5.778-11.17c1.849-3.755,15.399-22.785,26.568-17.974
			c11.923,5.136-7.548,39.454-10.26,43.197c-2.719,3.747-5.529,7.462-8.736,11.216c-1.615,1.881-3.301,3.762-5.326,5.721
			c-2.209,1.938-3.992,4.071-9.279,6.476l-0.52,0.238c-0.746,0.335-1.568,0.534-2.436,0.563l-40.748-0.708
			C248.151,186.047,247.303,171.491,251.283,170.759z"/>
		<path style="fill:#465683;" d="M277.995,307.743c0,3.9,7.897,5.996,19.498,2.145c1.267-0.439,2.632-0.926,3.997-1.512
			c3.412-1.413,7.409-0.877,11.748,0.146c8.92,2.145,19.156,6.337,28.174-0.146c4.777-3.461,6.044-5.069,6.678-6.093
			c0-0.049,0-0.049,0-0.049c0.878-1.413,0.488-1.462,7.458-3.656c1.999-0.634,3.753-1.219,5.362-1.852
			c16.67-6.239,13.697-11.65,9.554-17.548c-2.486-3.656-9.115-13.015-17.158-39.288c-4.387-14.379-9.602-23.056-12.527-32.951
			c0-0.195-0.098-0.292-0.098-0.292c-0.049-0.195-0.146-0.439-0.195-0.634c-0.536-1.901-0.975-3.802-1.267-5.849
			c-1.169-6.824-1.072-14.721,1.024-25.542c5.752-29.588-1.413-71.702-21.642-63.756c-12.527,4.972-12.722,12.234-25.151,30.562
			c-2.827,4.192-1.024,11.211-0.341,16.183c1.949,14.185,6.142,7.799,1.267,38.215c-0.195,1.365-0.488,2.925-0.829,4.679
			c-0.439,2.193-0.926,4.679-1.511,7.409c-0.829,4.095-1.804,8.725-2.877,13.697C282.967,250.567,274.485,291.365,277.995,307.743z"
			/>
		<path style="opacity:0.4;fill:#465683;" d="M289.157,221.613c0.098,0.049,0.195,0.049,0.293,0.049
			c11.942,0.341,24.908-2.145,38.995-7.41c11.162-4.143,12.332-6.532,12.332-7.311c0-0.195-0.098-0.292-0.098-0.292
			c-0.049-0.195-0.146-0.439-0.195-0.634c-0.536-1.901-0.975-3.802-1.267-5.849c0,0-44.016,4.045-47.183,7.75
			C291.204,212.01,290.229,216.641,289.157,221.613z"/>
		<path style="fill:#F79D79;" d="M310.897,113.255c0.049,0.829,0.098,1.56,0.098,2.047c-4.484,5.021,15.207-2.681,17.645-3.997
			c-0.243-0.536-1.023-3.266-1.95-6.531c-0.146-0.537-0.292-1.073-0.439-1.609c-1.413-4.874-2.924-10.383-3.119-11.308
			c0,0-14.623-1.999-14.574,1.413c0,1.072,0.585,5.313,1.17,9.895c0.488,3.656,0.975,7.507,1.17,10.041V113.255z"/>
		<path style="opacity:0.48;fill:#F79D79;" d="M326.69,104.774l-5.264,4.241c0,0-4.826,2.924-10.529,4.192
			c-0.195-2.534-0.682-6.386-1.17-10.041h16.524L326.69,104.774z"/>
		<path style="fill:#FC5954;" d="M290.754,165.802c1.949,14.185-2.929,46.549-3.269,48.304c8.82,7.439,59.114-8.442,59.114-13.337
			c-2.291-8.189-0.481-12.04-1.101-26.327c-1.363-31.392-6.67-71.52-26.899-63.575c-12.527,4.972-9.841,14.562-25.151,30.562
			C287.484,147.66,290.071,160.83,290.754,165.802z"/>
		<path style="opacity:0.28;fill:#FC5954;" d="M329.766,119.806c0,0,9.81,10.677-7.99,42.575
			c-7.396,13.254-17.015,24.549-23.937,29.841c-4.153,3.175-7.974,3.066-7.974,3.066l3.865-44.193
			C293.731,151.094,305.608,118.443,329.766,119.806z"/>
		<path style="fill:#FC5954;" d="M244.597,173.998l40.683-8.517c0.458-0.595,9.035-14.12,11.12-17.785
			c4.137-7.353,23.228-42.457,33.366-27.89c8.926,12.825-6.792,34.778-12.277,41.931c-2.761,3.564-5.547,7.11-8.552,10.665
			c-1.536,1.789-8.349,9.124-11.238,11.379l-0.632,0.494c-1.296,1.015-2.906,1.656-4.674,1.751l-45.905,2.472
			C242.934,188.691,240.633,174.825,244.597,173.998z"/>
		<path style="opacity:0.17;fill:#465683;" d="M348.089,302.235c0.878-1.413,0.488-1.462,7.458-3.656
			c1.999-0.634,3.753-1.219,5.362-1.852l0.926-1.219c0,0-15.696-21.302-16.768-18.816
			C344.336,278.253,346.48,292.34,348.089,302.235z"/>
		<path style="fill:#F79D79;" d="M297.241,91.568l2.661-6.11c0.07-12.611,5.591-19.746,18.665-19.779
			c18.173-0.046,21.673,9.414,17.117,26.802c-1.502,5.734-1.829,9.852-14.036,15.662c-12.891,6.136-18.773,0.318-20.862-11.334
			c-0.949-0.21-1.823-0.463-2.394-0.896C297.084,94.883,296.614,93.112,297.241,91.568z"/>
		<path style="opacity:0.17;fill:#465683;" d="M297.493,309.888c1.267-0.439,2.632-0.926,3.997-1.512
			c3.412-1.413,7.409-0.877,11.748,0.146c-3.217-5.898-9.603-17.353-11.017-16.768C300.271,292.583,297.493,309.888,297.493,309.888
			z"/>
		<path style="fill:#373362;" d="M301.861,74.667c0,0-0.051,2.406,6.596,3.637c6.646,1.231,10.421,12.011,13.153,14.657
			c2.443,2.367-12.556,16.027-0.208,17.015c0,0,5.288-1.466,11.454,4.209c7.368,6.781,16.759-52.126-8.276-51.544
			C299.545,63.223,301.861,74.667,301.861,74.667z"/>
		<path style="fill:#F79D79;" d="M318.773,89.913c0.581,3.747-2.57,4.482-0.817,5.636c1.754,1.153,4.445,0.159,6.01-2.221
			c1.565-2.38,2.319-4.648-0.342-6.398C321.043,85.232,318.336,87.098,318.773,89.913z"/>
		<path style="fill:#FC5954;" d="M343.656,84.211c0,2.119,0.177,4.168,1.413,4.168c1.235,0,2.237-1.718,2.237-3.837
			c0-2.12-1.002-3.838-2.237-3.838C343.833,80.704,343.656,82.092,343.656,84.211z"/>
		<path style="fill:#FC5954;" d="M320.957,77.052l0.348,0.479l-5.618,6.398c-1.248,0.614-3.452-2.204-2.801-3.224L320.957,77.052z"
			/>
		<path style="fill:#F79D79;" d="M309.288,388.853c0.292,0.878,4.143,1.853,7.409,1.56c3.266-0.342,7.946-4.143,11.699-3.608
			c3.218,0.488,6.142-1.462,5.265-3.948c-0.244-0.732-0.537-1.755-0.732-2.876h-0.049c-0.877-4.582-1.023-11.26-1.023-11.26
			l-10.675-2.388c0,0,3.607,10.236-0.975,13.892c-3.266,2.632-6.678,4.582-8.872,6.044
			C309.825,387.244,309.094,388.073,309.288,388.853z"/>
		<path style="fill:#FC5954;" d="M309.288,388.853c0.292,0.878,4.143,1.853,7.409,1.56c3.266-0.342,7.946-4.143,11.699-3.608
			c3.218,0.488,6.142-1.462,5.265-3.948c-0.244-0.732-0.537-1.755-0.732-2.876c0,0-0.633,2.583-5.946,3.46
			c-5.362,0.829-9.212,3.997-11.845,4.338c-2.68,0.341-3.802-1.51-3.802-1.51C309.825,387.244,309.094,388.073,309.288,388.853z"/>
		<path style="fill:#F79D79;" d="M237.415,180.753l-6.307-2.803l0.441,0.118l-2.765-0.601l-1.117-0.196
			c0.84-0.254-0.046,0.036-0.287,0.102c-0.367,0.091-0.726,0.162-1.24,0.158c-0.985-0.007-1.778-0.813-1.771-1.799
			c0.006-0.787,0.522-1.452,1.232-1.683l0.539-0.174c-0.026-0.009,0.098-0.032,0.197-0.076c0.237-0.03-0.237-0.068,1.099-0.322
			c0.86-0.056,1.23-0.015,1.795-0.001l3.02,0.2l0.18,0.034l0.263,0.085l6.569,2.116c1.364,0.44,2.114,1.902,1.674,3.266
			c-0.439,1.364-1.901,2.114-3.266,1.674C237.585,180.824,237.497,180.79,237.415,180.753z"/>
		<path style="fill:#373362;" d="M302.847,86.283c0,0.71,0.576,1.285,1.285,1.285c0.71,0,1.286-0.575,1.286-1.285
			c0-0.71-0.576-1.286-1.286-1.286C303.422,84.997,302.847,85.572,302.847,86.283z"/>
		<path style="fill:#373362;" d="M309.137,83.905c-1.307-0.208-2.587-0.37-3.808-0.412c-0.622-0.001-1.22,0.175-1.783,0.01
			c-0.577-0.22-1.141-0.353-1.872-0.871c-0.071-0.047-0.09-0.144-0.043-0.215c0.54-0.744,1.274-0.961,1.987-1.139
			c0.727-0.121,1.414,0.217,2.057,0.468c1.311,0.464,2.483,1.15,3.549,1.952c0.051,0.038,0.061,0.11,0.023,0.16
			C309.221,83.895,309.178,83.911,309.137,83.905z"/>
		<path style="fill:#F1E0D2;" d="M307.717,100.486c0,0-2.115,2.965-4.871,3.308l-1.042-2.742
			C301.805,101.052,306.153,101.008,307.717,100.486z"/>
	</g>
	<g>
		<path style="fill:#373362;" d="M101.471,381.454c1.408,0.302,2.616,0.252,4.025,0.151c1.66-0.05,3.673-0.151,6.641,0.553
			c0.252,0,0.553,0.101,0.805,0.151c3.521,0.906,9.358-0.503,8.301-3.069c-0.151-0.302-0.301-0.604-0.503-0.855
			c-1.509-1.66-4.729-1.761-5.283-2.063c-0.654-0.302-5.635-3.723-6.491-5.132c-1.258-1.912-2.666-12.729-2.666-12.729l-7.899,6.993
			c0,0,0.252,3.924,0.201,7.144c0,1.208-0.1,2.314-0.201,3.069C97.899,378.486,98.151,380.65,101.471,381.454z"/>
		<path style="opacity:0.54;fill:#373362;" d="M98.603,372.6c0,0,2.2,2.029,7.022,0.888c2.839-0.671,2.182,5.314-0.129,8.118
			c1.66-0.05,3.673-0.151,6.641,0.553c2.566-1.006,5.585-2.365,8.603-3.773c-1.509-1.66-4.729-1.761-5.283-2.063
			c-0.654-0.302-5.635-3.723-6.491-5.132c-1.258-1.912-2.666-12.729-2.666-12.729l-7.899,6.993
			C98.402,365.456,98.654,369.38,98.603,372.6z"/>
		<path style="fill:#373362;" d="M112.062,367.184c0,0,0.119,9.721-1.776,12.634c-1.452,2.231,0.052,6.925,6.52,7.558
			c6.468,0.632,11.693,2.653,15.146,2.462c3.453-0.191,7.903-3.241,2.807-5.929c-5.097-2.687-10.44-3.718-13.068-9.676
			c-2.628-5.958,1.552-7.667,1.552-7.667L112.062,367.184z"/>
		<g>
			<g>
				<path style="fill:#BA423E;" d="M165.926,132.759c-0.621,2.922,0.971,5.971,2.542,6.071c0.845,0.054,4.172-1.588,4.795-4.51
					c0.621-2.922,2.869-4.621-2.543-6.072C165.746,126.915,166.547,129.837,165.926,132.759z"/>
				<path style="opacity:0.59;fill:#BA423E;" d="M173.674,129.561c0.523,0.819,2.588,3.844-6.392,1.287
					c-0.622,2.923,0.97,5.971,2.542,6.072c0.502,0.032,2.029-0.375,3.109-1.61c-1.05,2.301-3.72,3.569-4.465,3.521
					c-1.572-0.1-3.005-3.12-2.543-6.072C166.333,130.159,165.711,125.27,173.674,129.561z"/>
			</g>
			<path style="fill:#488252;" d="M151.057,215.512l-2.191-0.526c9.271-38.692,38.259-79.924,38.554-80.335l1.838,1.302
				C188.973,136.364,160.23,177.25,151.057,215.512z"/>
			<path style="fill:#234028;" d="M143.452,221.303l-2.005-1.032c7.223-14.067,32.01-88.247,32.261-88.994l2.142,0.712
				C174.828,135.05,150.753,207.081,143.452,221.303z"/>
			<path style="fill:#2D5133;" d="M159.709,215.52l-2.191-0.54c0.128-0.512,12.47-51.558,3.616-83.042l2.172-0.609
				C172.322,163.385,159.837,215.001,159.709,215.52z"/>
			<path style="fill:#2D5133;" d="M145.741,227.83l-2.192-0.541c8.466-34.368,43.419-107.463,43.773-108.197l2.034,0.977
				C189.007,120.801,154.148,193.685,145.741,227.83z"/>
			<path style="fill:#1E3622;" d="M155.307,220.929l-2.24-0.285c0.088-0.71,8.908-71.523,0.039-100.737l2.162-0.653
				C164.274,148.927,155.676,218.003,155.307,220.929z"/>
			<path style="fill:#2D5133;" d="M142.842,131.416c5.263,4.597,8.838,10.279,11.841,16.199c3.028,5.944,4.114,12.633,5.357,19.153
				c1.165,6.55,2.083,13.16,2.022,19.842c-0.21,6.659-1.043,13.358-3.424,19.508l-0.868-0.246
				c0.943-6.385,0.759-12.731-0.211-18.959c-0.813-6.242-2.558-12.349-4.508-18.327c-1.925-6.019-5.101-11.566-6.766-17.661
				c-1.766-6.092-3.43-12.252-4.234-19.074L142.842,131.416z"/>
			<g>
				<path style="fill:#FC5954;" d="M147.201,114.977c1.381,4.273,5.742,7.052,7.865,6.004c1.142-0.563,4.245-5.198,2.864-9.472
					c-1.381-4.273,0.273-8.173-7.865-6.004C142.585,107.498,145.82,110.703,147.201,114.977z"/>
				<path style="opacity:0.59;fill:#FC5954;" d="M154.899,105c1.296,0.676,6.254,3.068-7.363,6.47
					c1.381,4.273,5.742,7.052,7.866,6.004c0.678-0.334,2.362-2.01,2.842-4.429c0.358,3.787-2.171,7.44-3.177,7.936
					c-2.123,1.049-6.255-1.811-7.865-6.004C145.783,111.284,141.306,105.379,154.899,105z"/>
			</g>
			<g>
				<path style="fill:#FC5954;" d="M156.494,127.374c1.061,3.284,4.412,5.418,6.043,4.613c0.877-0.433,3.261-3.993,2.2-7.277
					c-1.061-3.283,0.21-6.279-6.043-4.613C152.948,121.628,155.434,124.09,156.494,127.374z"/>
				<path style="opacity:0.59;fill:#FC5954;" d="M162.408,119.709c0.996,0.519,4.805,2.357-5.657,4.97
					c1.061,3.283,4.412,5.418,6.043,4.613c0.521-0.257,1.814-1.545,2.184-3.403c0.275,2.909-1.667,5.716-2.441,6.097
					c-1.631,0.805-4.805-1.392-6.043-4.613C155.404,124.536,151.965,119.999,162.408,119.709z"/>
			</g>
			<g>
				<path style="fill:#FC5954;" d="M188.087,125.584c-2.49,3.982-1.777,9.342,0.49,10.335c1.219,0.534,7.017-0.103,9.507-4.085
					c2.489-3.982,6.723-5.283-0.491-10.335C190.963,116.855,190.576,121.602,188.087,125.584z"/>
				<path style="opacity:0.59;fill:#FC5954;" d="M201.251,125.026c0.332,1.492,1.755,7.069-10.133-1.536
					c-2.49,3.982-1.777,9.342,0.491,10.335c0.724,0.317,3.198,0.537,5.457-0.707c-2.789,2.835-7.415,3.271-8.489,2.8
					c-2.268-0.993-2.761-6.224-0.491-10.335C190.087,121.963,191.797,114.405,201.251,125.026z"/>
			</g>
			<g>
				<path style="fill:#D44B47;" d="M187.998,114.618c-1.584,2.533-1.13,5.943,0.313,6.575c0.775,0.339,4.464-0.066,6.047-2.599
					c1.584-2.533,4.277-3.361-0.312-6.575C189.828,109.065,189.581,112.084,187.998,114.618z"/>
				<path style="opacity:0.59;fill:#D44B47;" d="M196.373,114.263c0.211,0.949,1.117,4.497-6.446-0.977
					c-1.584,2.533-1.131,5.943,0.313,6.575c0.46,0.202,2.034,0.341,3.471-0.45c-1.774,1.804-4.717,2.081-5.4,1.781
					c-1.443-0.631-1.757-3.959-0.313-6.574C189.27,112.314,190.359,107.506,196.373,114.263z"/>
			</g>
			<g>
				<path style="fill:#FC5954;" d="M170.997,126.583c-0.841,3.47,0.959,7.167,2.835,7.34c1.008,0.093,5.037-1.758,5.878-5.229
					c0.841-3.47,3.583-5.425-2.834-7.339C170.978,119.595,171.838,123.112,170.997,126.583z"/>
				<path style="opacity:0.59;fill:#FC5954;" d="M180.361,123.021c0.598,0.997,2.964,4.679-7.68,1.323
					c-0.84,3.47,0.96,7.167,2.834,7.34c0.598,0.055,2.437-0.38,3.769-1.82c-1.333,2.715-4.565,4.14-5.453,4.058
					c-1.875-0.173-3.486-3.828-2.835-7.34C171.571,123.49,170.992,117.627,180.361,123.021z"/>
			</g>
			<path style="fill:#2D5133;" d="M149.662,200.568l-2.054-0.943c9.188-19.926,37.64-55.65,37.93-56.009l1.759,1.41
				C187.018,145.382,158.727,180.893,149.662,200.568z"/>
			<g>
				<path style="fill:#B5403C;" d="M187.724,139.19c-2.548,1.56-3.665,4.813-2.656,6.023c0.542,0.65,4.023,1.935,6.572,0.375
					c2.548-1.56,5.328-1.099,2.656-6.023C191.84,135.039,190.273,137.631,187.724,139.19z"/>
				<path style="opacity:0.59;fill:#B5403C;" d="M195.376,142.612c-0.234,0.943-1.008,4.522-5.332-3.753
					c-2.548,1.559-3.665,4.813-2.656,6.023c0.322,0.386,1.669,1.214,3.308,1.148c-2.393,0.822-5.15-0.244-5.627-0.817
					c-1.009-1.21,0.196-4.327,2.656-6.023C189.892,137.697,193.011,133.881,195.376,142.612z"/>
			</g>
			<path style="fill:#2D5133;" d="M160.638,184.993l-1.975-1.096c4.697-8.448,8.648-45.963,8.687-46.342l2.24,0.236
				C169.428,139.351,165.556,176.144,160.638,184.993z"/>
		</g>
		<g>
			<g>
				<path style="fill:#BA423E;" d="M183.966,143.936c-1.324,2.679-4.464,4.084-5.759,3.188c-0.697-0.482-2.289-3.834-0.965-6.512
					c1.324-2.679,0.614-5.405,5.76-3.188C187.73,139.463,185.29,141.258,183.966,143.936z"/>
				<path style="opacity:0.59;fill:#BA423E;" d="M179.87,136.623c-0.919,0.319-4.414,1.412,4.217,4.973
					c-1.325,2.678-4.464,4.083-5.76,3.187c-0.413-0.286-1.359-1.552-1.441-3.191c-0.603,2.457,0.707,5.107,1.32,5.531
					c1.296,0.896,4.293-0.584,5.759-3.187C185.258,141.644,188.778,138.193,179.87,136.623z"/>
			</g>
			<path style="fill:#223D27;" d="M146.37,219.032l-2.045-0.948c16.529-35.719,19.324-85.606,19.354-86.105l2.25,0.118
				C165.906,132.6,163.085,182.923,146.37,219.032z"/>
			<path style="fill:#2D5133;" d="M148.915,227.778l-2.211-0.437c3.09-15.683,28.856-87.125,29.952-90.159l2.122,0.767
				C178.512,138.691,151.976,212.262,148.915,227.778z"/>
			<path style="fill:#2D5133;" d="M139.59,213.662l-2.054-0.939c0.221-0.484,22.424-48.725,49.373-68.287l1.326,1.827
				C161.768,165.475,139.806,213.181,139.59,213.662z"/>
			<path style="fill:#1C3320;" d="M142.916,231.979l-2.054-0.934c14.568-32.005,32.413-110.802,32.59-111.593l2.201,0.497
				C175.476,120.742,157.577,199.765,142.916,231.979z"/>
			<path style="fill:#2D5133;" d="M139.57,220.865l-1.936-1.164c1.523-2.525,37.606-62.053,63.072-79.752l1.287,1.852
				C176.926,159.225,139.938,220.251,139.57,220.865z"/>
			<path style="fill:#234028;" d="M198.504,154.69c-4.333,5.171-9.01,9.309-13.735,13.341c-4.646,4.086-10.226,6.904-15.089,10.748
				c-9.696,7.621-18.615,16.433-24.64,27.569l-0.841-0.326c1.742-6.201,4.76-12.031,8.234-17.556
				c3.673-5.386,7.92-10.351,12.426-15.065c4.558-4.628,9.029-9.555,14.732-12.765c5.664-3.209,11.682-5.899,18.497-6.747
				L198.504,154.69z"/>
			<path style="fill:#407348;" d="M147.268,141.81c5.838,2.889,9.939,7.896,13.017,13.278c3.139,5.446,3.965,11.822,4.633,17.884
				c0.617,6.097,0.799,12.219-0.129,18.193c-0.775,5.978-2.305,11.772-4.249,17.338l-0.877-0.214
				c0.193-2.938,0.568-5.814,0.703-8.697c-0.018-2.9,0.231-5.756-0.087-8.613l-0.248-4.253l-0.591-4.203
				c-0.309-2.793-0.994-5.533-1.623-8.236c-1.364-5.45-4.176-10.269-5.764-15.492c-1.711-5.255-3.588-10.44-5.439-16.362
				L147.268,141.81z"/>
			<g>
				<path style="fill:#FC5954;" d="M209.682,141.594c-3.733,2.497-8.878,1.973-9.894-0.165c-0.546-1.15-0.108-6.71,3.625-9.207
					c3.734-2.496,4.853-6.582,9.894,0.166C217.941,138.588,213.415,139.097,209.682,141.594z"/>
				<path style="opacity:0.59;fill:#FC5954;" d="M209.829,128.994c-1.436-0.274-6.81-1.471,1.766,9.641
					c-3.733,2.497-8.878,1.973-9.894-0.165c-0.324-0.682-0.607-3.041,0.515-5.238c-2.628,2.75-2.909,7.184-2.428,8.197
					c1.016,2.139,6.031,2.457,9.894,0.165C213.085,139.575,220.259,137.718,209.829,128.994z"/>
			</g>
			<g>
				<path style="fill:#FC5954;" d="M194.705,145.559c-2.869,1.919-6.821,1.516-7.601-0.128c-0.419-0.883-0.083-5.155,2.785-7.073
					c2.868-1.919,3.728-5.057,7.601,0.127C201.05,143.25,197.573,143.641,194.705,145.559z"/>
				<path style="opacity:0.59;fill:#FC5954;" d="M194.817,135.878c-1.103-0.21-5.231-1.13,1.358,7.407
					c-2.869,1.918-6.821,1.516-7.602-0.127c-0.249-0.524-0.466-2.337,0.396-4.024c-2.019,2.113-2.235,5.52-1.865,6.298
					c0.78,1.643,4.633,1.887,7.601,0.127C197.319,144.008,202.831,142.581,194.817,135.878z"/>
			</g>
			<g>
				<path style="fill:#FC5954;" d="M171.027,124.567c-0.515,4.668-4.398,8.432-6.792,7.805c-1.288-0.337-5.442-4.432-4.927-9.1
					c0.516-4.667-1.998-8.313,6.794-7.804C174.182,115.936,171.542,119.9,171.027,124.567z"/>
				<path style="opacity:0.59;fill:#FC5954;" d="M161.044,115.968c-1.186,0.965-5.76,4.458,8.902,5.077
					c-0.515,4.669-4.398,8.432-6.793,7.805c-0.764-0.2-2.842-1.562-3.843-3.938c0.43,3.953,3.789,7.163,4.923,7.46
					c2.395,0.628,6.025-3.172,6.793-7.805C171.703,120.486,175.046,113.496,161.044,115.968z"/>
			</g>
			<g>
				<path style="fill:#D44B47;" d="M177.896,116.018c-0.328,2.97-2.798,5.364-4.322,4.965c-0.819-0.215-3.461-2.819-3.133-5.788
					c0.328-2.969-1.272-5.289,4.321-4.965C179.903,110.527,178.224,113.049,177.896,116.018z"/>
				<path style="opacity:0.59;fill:#D44B47;" d="M171.545,110.547c-0.754,0.614-3.665,2.836,5.664,3.23
					c-0.328,2.97-2.798,5.364-4.321,4.965c-0.487-0.128-1.809-0.994-2.446-2.506c0.274,2.515,2.411,4.557,3.133,4.747
					c1.524,0.399,3.833-2.017,4.322-4.965C178.326,113.422,180.453,108.975,171.545,110.547z"/>
			</g>
			<g>
				<path style="fill:#FC5954;" d="M183.817,135.947c-1.492,3.244-5.197,5.028-6.774,4.002c-0.848-0.552-2.863-4.503-1.371-7.748
					c1.492-3.244,0.552-6.478,6.774-4.001C188.164,130.476,185.309,132.703,183.817,135.947z"/>
				<path style="opacity:0.59;fill:#FC5954;" d="M178.678,127.346c-1.087,0.411-5.226,1.834,5.205,5.8
					c-1.492,3.244-5.196,5.028-6.775,4.001c-0.504-0.328-1.676-1.809-1.828-3.764c-0.638,2.956,1.015,6.078,1.762,6.564
					c1.578,1.028,5.109-0.842,6.774-4.001C185.283,133.164,189.373,128.923,178.678,127.346z"/>
			</g>
			<path style="fill:#2D5133;" d="M156.879,207.757l-2.191-0.531c5.08-21.06,4.904-66.462,4.898-66.918l2.26-0.01
				C161.847,140.754,162.029,186.428,156.879,207.757z"/>
			<g>
				<path style="fill:#B5403C;" d="M162.876,135.468c1.032,2.803-0.109,6.049-1.65,6.372c-0.829,0.174-4.356-0.977-5.388-3.781
					c-1.032-2.804-3.499-4.165,1.65-6.372C162.22,129.658,161.843,132.664,162.876,135.468z"/>
				<path style="opacity:0.59;fill:#B5403C;" d="M154.75,133.408c-0.401,0.886-2.013,4.174,6.51,0.362
					c1.032,2.803-0.109,6.048-1.65,6.372c-0.492,0.103-2.062-0.082-3.307-1.15c1.368,2.129,4.191,3.002,4.922,2.849
					c1.541-0.324,2.529-3.517,1.65-6.373C162.101,132.953,162.019,128.024,154.75,133.408z"/>
			</g>
			<path style="fill:#2D5133;" d="M157.961,188.561l-2.231-0.364c1.627-9.991,21.402-41.257,22.243-42.584l1.906,1.209
				C179.677,147.144,159.508,179.021,157.961,188.561z"/>
		</g>
		<path style="fill:#F79D79;" d="M151.186,173.807c0,0,2.66,0.7,5.599,0.7c2.94,0,6.019-2.099,8.819,0
			c2.799,2.1,5.013,3.909,3.079,8.959c-1.853,4.838-2.997,4.463-3.837,4.603c-0.84,0.14-6.662,0.395-10.022-1.594
			c-3.359-1.99-6.999-2.868-6.999-2.868L151.186,173.807z"/>
		<path style="fill:#465683;" d="M81.627,90.69c3.649,10.329,5.464,18.318,16.052,18.318c10.588,0,15.384-20.563,23.165-28.273
			c6.476-6.417-2.978-18.241-19.152-17.329C85.581,64.314,77.614,79.332,81.627,90.69z"/>
		<path style="fill:#CB734F;" d="M83.245,220.781c0,0.033,1.47,13.379,4.253,21.979c1.802,5.569,10.904,57.113,10.904,58.355
			c0,0-3.838,54.033-2.597,67.291c0.266,2.483,3.461,2.159,6.663,2.152c4.301-0.009,6.84-1.169,7.106-3.209
			c1.818-13.125,5.731-56.108,5.731-56.108l0.621-4.745l0.31-2.261l0.355-1.951c0.488-3.503,3.725-50.463,4.789-72.325
			c0.177-3.725,0.266-6.696,0.311-8.647c0.133-10.598-8.337-19.333-18.935-19.467c-5.498-0.089-10.465,2.128-14.012,5.765
			C85.417,211.025,83.333,215.637,83.245,220.781z"/>
		<path style="opacity:0.46;fill:#CB734F;" d="M83.245,220.781c0,21.979,26.145,71.836,26.913,78.723
			c1.02,9.667-2.224,57.823-9.452,71.038c4.301-0.044,8.603-1.153,8.868-3.193c1.818-13.125,5.731-56.108,5.731-56.108l0.621-4.745
			l0.31-2.261l0.355-1.951c0.488-3.503,3.725-50.463,4.789-72.325l-25.941-22.615l-6.696,0.266
			C85.417,211.025,83.245,198.801,83.245,220.781z"/>
		<path style="fill:#CB734F;" d="M86.702,236.94c0.266,0.532,27.537,62.214,27.537,62.214l-3.743,73.192
			c-0.443,4.878,12.64,6.285,13.616,2.028c0,0,21.478-76.993,21.257-78.323l-0.31-1.729l-13.614-77.602l-0.088-0.621
			c-2.085-12.948-6.253-16.008-11.663-16.363c-3.149-0.221-6.785,0.488-10.687,0.666c-8.292,0.399-14.323,2.173-18.492,4.922
			c-4.966,3.193-7.361,7.716-8.026,12.682c0,0,0,0,0,0.044C81.691,224.169,83.598,230.953,86.702,236.94z"/>
		<path style="fill:#F1E0D2;" d="M89.895,157.697c1.419,3.326,2.882,6.652,4.479,10.066c0.843,1.729,1.685,3.414,2.749,5.365
			c0.532,0.975,1.109,1.995,2.217,3.592c0.355,0.443,0.488,0.709,1.287,1.596c0.31,0.31,0.664,0.709,0.976,0.975l0.399,0.31
			l1.641,1.242c4.08,2.661,7.538,4.08,11.042,5.543c3.459,1.419,6.873,2.616,10.288,3.769c0.621,0.221,1.197,0.399,1.818,0.577
			c0.133,0.088,0.222,0.132,0.355,0.132c6.075,2.04,12.105,3.858,18.048,5.676c2.217,0.665,4.789-3.991,5.587-7.805
			c0.488-2.172,0.355-4.035-0.665-4.567c-3.149-1.597-11.308-6.12-18.757-10.376c-7.229-4.124-13.836-7.982-14.634-8.692
			c0.222-0.222-0.931-3.015-1.419-5.277c-0.842-3.104-1.64-6.385-2.394-9.667c-1.508-6.607-9.623-36.007-20.619-31.174
			C78.543,125.061,87.057,151.046,89.895,157.697z"/>
		<path style="opacity:0.54;fill:#F1E0D2;" d="M120.004,170.424l6.784,20.31l0.178,0.576c0,0,0.044-0.178,0.178-0.444
			c0.532-1.197,2.128-4.479,4.301-5.232c2.661-0.887,19.334,3.104,19.334,3.104c0.488-2.172,0.355-4.035-0.665-4.567
			c-3.149-1.597-11.308-6.12-18.757-10.376L120.004,170.424z"/>
		<path style="opacity:0.19;fill:#CB734F;" d="M82.489,218.005c0,0,0,0,0,0.044c0.222,0.488,2.173,3.858,13.879,3.015
			c12.594-0.842,26.917-4.213,30.952-4.567c1.419-0.133,2.838,0,4.124,0.221l-0.088-0.621c-2.085-12.948-6.253-16.008-11.663-16.363
			l-28.425,5.499l-0.754,0.089C85.549,208.516,83.154,213.039,82.489,218.005z"/>
		<path style="fill:#F1E0D2;" d="M77.17,162.095c0.252,2.063,0.604,4.125,1.006,6.138c1.258,6.49,2.667,13.181,3.622,17.659
			c0.202,0.906,0.352,1.711,0.503,2.415c1.409,6.842,0.956,19.018-1.56,26.162c2.516,6.289,17.458,5.685,31.093,0.755
			c10.968-3.975,20.175-1.862,19.571-3.673c0,0-4.579-25.508-4.679-30.388c0-0.704,0.1-2.113,0.201-4.075
			c0.352-6.088,0.654-17.559-3.371-29.684c-3.22-9.761-9.207-19.974-20.275-28.175c-15.647-13.785-22.439-0.654-25.307,13.585
			C75.963,142.473,75.862,152.384,77.17,162.095z"/>
		<path style="fill:#FDC61C;" d="M77.17,162.095c0.252,2.063,0.604,4.125,1.006,6.138c1.258,6.49,2.667,13.181,3.622,17.659
			c2.717,0.604,6.642,0.756,12.226-0.251c13.282-2.315,11.672-10.918,32.904-8.554c0.352-6.088,0.654-17.559-3.371-29.684
			c-6.691,0.805-14.138,2.868-18.565,7.698C98.302,162.446,84.415,164.258,77.17,162.095z"/>
		<path style="fill:#F1E0D2;" d="M85.651,135.897c0,0,3.63,34.562,17.999,44.939c5.449,3.935,23.67,5.858,23.67,5.858
			c-0.715-4.483-1.185-15.228-1.679-25.385c-3.851-2.403-9.66-15.365-15.314-27.489L85.651,135.897z"/>
		<path style="fill:#F1E0D2;" d="M91.491,119.391c5.956-4.71,18.806,8.743,23.681,26.688c0.82,3.02,5.403,12.906,5.403,12.906
			c4.364,2.199,26.064,11.376,32.342,13.6l0.164,0.056c2.748,0.976,1.031,13.241-2.665,13.01
			c-7.166-0.448-35.383-3.952-42.661-5.553c-1.018-0.228-2.027-0.704-2.877-1.427l-0.988-0.84c-0.575-0.508-1.134-1.053-1.653-1.616
			l-0.941-1.124c-0.538-0.688-0.938-1.256-1.305-1.797c-0.7-1.045-1.265-1.97-1.768-2.84c-1.015-1.748-1.87-3.361-2.687-4.956
			C93.917,162.32,76.746,131.052,91.491,119.391z"/>
		<path style="fill:#F79D79;" d="M86.028,115.36c0.769,2.572,24.498,10.596,18.406,4.743l0.408-2.636l1.308-11.522l0.352-2.868
			c0.402-3.673-15.396-6.389-16.452-3.623L86.028,115.36z"/>
		<path style="opacity:0.43;fill:#F79D79;" d="M90,106.098c0,0,4.73,9.106,14.842,11.37l1.308-11.522l-16.1-6.491L90,106.098z"/>
		<path style="fill:#F79D79;" d="M98.905,112.085c10.113,5.333,15.899,3.17,19.169-2.315c0.805-1.258,1.409-2.716,1.912-4.276
			c0.352-1.107,0.654-2.214,0.906-3.422c0,0,4.78-0.201,4.78-2.465c0-1.509-1.56-5.735-2.616-8.402
			c-0.604-1.509-0.956-3.169-1.057-4.779c-0.704-13.232-4.88-20.175-17.207-20.175c-13.886,0-19.622,4.83-20.427,20.025
			C83.51,103.028,88.39,106.5,98.905,112.085z"/>
		<path style="fill:#465683;" d="M121.426,80.055c0,0-2.557,4.333-10.948,4.886c-5.079,0.335-0.704,9.236-2.425,11.765
			c-2.506,0.393-13.857,8.166-19.526,8.774c-6.184-6.76-5.905-27.849-1.763-33.124C90.828,67.181,116.135,53.241,121.426,80.055z"/>
		<path style="fill:#F79D79;" d="M99.012,98.232c2.011,2.897,5.033,4.279,6.75,3.087c1.717-1.192-0.338-3.185-0.363-6.543
			c-0.025-3.526-4.091-4.927-6.527-3.236C96.35,93.292,97.001,95.335,99.012,98.232z"/>
		<path style="fill:#465683;" d="M120.154,86.959c-1.684,0.379-3.536,0.372-5.135,0.659l-0.103,0.018
			c-0.407,0.073-0.796-0.198-0.868-0.604c-0.041-0.227,0.028-0.452,0.166-0.616c0.777-0.914,1.795-1.277,2.723-1.717
			c0.984-0.288,1.925-0.576,2.979-0.532c0.78,0.032,1.385,0.69,1.352,1.47C121.241,86.288,120.761,86.822,120.154,86.959z"/>
		<path style="fill:#1B2438;" d="M117.325,90.239c0,0.737,0.598,1.334,1.335,1.334c0.736,0,1.334-0.597,1.334-1.334
			c0-0.737-0.598-1.334-1.334-1.334C117.923,88.905,117.325,89.503,117.325,90.239z"/>
		<path style="fill:#F1E0D2;" d="M112.338,102.877c0.252,3.471,2.767,5.585,5.735,6.893c0.805-1.258,1.409-2.716,1.912-4.276
			C119.986,105.494,115.81,105.091,112.338,102.877z"/>
	</g>
</g>
</svg>
